<?xml version="1.0" encoding="UTF-8"?>
<svg xmlns="http://www.w3.org/2000/svg" xmlns:xlink="http://www.w3.org/1999/xlink" width="15px" height="13px" viewBox="0 0 14 13" version="1.1">
<g id="surface1">
<path style=" stroke:none;fill-rule:nonzero;fill:rgb(0%,0%,0%);fill-opacity:1;" d="M 3.867188 0.0117188 C 3.839844 0.0234375 0.0546875 4.4375 0.0195312 4.496094 C -0.00390625 4.539062 -0.00390625 4.589844 0.0195312 4.636719 C 0.046875 4.679688 0.394531 5.070312 0.4375 5.097656 C 0.472656 5.125 0.542969 5.125 0.582031 5.097656 C 0.597656 5.089844 1.355469 4.226562 2.265625 3.179688 C 3.175781 2.132812 3.925781 1.28125 3.929688 1.28125 C 3.941406 1.28125 8.179688 4.78125 8.234375 4.835938 C 8.246094 4.851562 8.277344 4.867188 8.300781 4.871094 C 8.324219 4.875 9.570312 4.875 11.070312 4.871094 C 13.691406 4.867188 13.804688 4.863281 13.828125 4.84375 C 13.863281 4.808594 13.875 4.773438 13.941406 4.53125 C 14.003906 4.285156 14.007812 4.261719 13.964844 4.210938 C 13.949219 4.195312 13.3125 3.691406 12.546875 3.089844 C 11.777344 2.488281 10.832031 1.742188 10.441406 1.433594 C 10.011719 1.097656 9.714844 0.871094 9.691406 0.863281 C 9.667969 0.859375 9.570312 0.84375 9.472656 0.828125 C 9.371094 0.816406 9.191406 0.789062 9.066406 0.773438 C 8.5625 0.695312 8.355469 0.664062 7.972656 0.609375 C 7.753906 0.578125 7.542969 0.542969 7.503906 0.539062 C 7.464844 0.53125 7.253906 0.5 7.039062 0.46875 C 6.820312 0.4375 6.027344 0.316406 5.269531 0.203125 C 4.515625 0.09375 3.894531 0 3.894531 0 C 3.890625 0 3.878906 0.00390625 3.867188 0.0117188 Z M 3.867188 0.0117188 "/>
<path style=" stroke:none;fill-rule:nonzero;fill:rgb(0%,0%,0%);fill-opacity:1;" d="M 3.847656 2.25 C 3.828125 2.257812 3.792969 2.273438 3.769531 2.289062 C 3.75 2.304688 3.148438 2.976562 2.4375 3.78125 C 1.335938 5.027344 1.136719 5.261719 1.105469 5.328125 L 1.066406 5.40625 L 1.0625 7.890625 C 1.0625 9.695312 1.0625 10.394531 1.070312 10.445312 C 1.078125 10.484375 1.097656 10.535156 1.109375 10.5625 C 1.140625 10.617188 1.214844 10.691406 1.253906 10.710938 C 1.324219 10.738281 2.5 11.207031 2.625 11.253906 C 2.742188 11.300781 2.769531 11.304688 2.824219 11.300781 C 2.945312 11.289062 3.058594 11.207031 3.113281 11.089844 L 3.140625 11.03125 L 3.140625 10.410156 C 3.140625 10.070312 3.132812 8.964844 3.128906 7.957031 C 3.121094 6.949219 3.117188 6.121094 3.121094 6.117188 C 3.121094 6.117188 3.484375 6.117188 3.921875 6.121094 L 4.714844 6.128906 L 4.707031 8.84375 C 4.703125 10.335938 4.699219 11.597656 4.699219 11.644531 C 4.699219 11.753906 4.714844 11.816406 4.761719 11.878906 C 4.839844 11.988281 4.8125 11.976562 5.625 12.273438 C 5.714844 12.308594 5.855469 12.359375 5.945312 12.390625 C 6.03125 12.421875 6.175781 12.476562 6.261719 12.507812 C 6.652344 12.652344 6.757812 12.691406 7.148438 12.835938 C 7.671875 13.035156 7.621094 13.027344 7.988281 12.902344 C 8.234375 12.820312 8.652344 12.679688 9.800781 12.296875 C 10.050781 12.214844 10.378906 12.101562 10.527344 12.054688 C 10.679688 12.003906 11.003906 11.894531 11.253906 11.808594 C 11.503906 11.726562 11.953125 11.574219 12.253906 11.472656 C 12.554688 11.375 12.960938 11.238281 13.152344 11.175781 C 13.34375 11.109375 13.519531 11.046875 13.539062 11.035156 C 13.59375 11.007812 13.65625 10.9375 13.683594 10.875 L 13.710938 10.820312 L 13.714844 8.507812 L 13.714844 6.195312 L 13.6875 6.125 C 13.65625 6.050781 13.601562 5.992188 13.527344 5.949219 C 13.480469 5.921875 13.476562 5.921875 13.125 5.921875 C 12.929688 5.925781 12.546875 5.929688 12.277344 5.9375 C 11.582031 5.957031 10.179688 5.992188 9.429688 6.007812 C 9.160156 6.015625 8.839844 6.023438 8.71875 6.027344 L 8.492188 6.035156 L 6.320312 4.167969 C 5.128906 3.144531 4.125 2.289062 4.097656 2.273438 C 4.03125 2.234375 3.914062 2.222656 3.847656 2.25 Z M 11.582031 7.753906 C 11.671875 7.785156 11.746094 7.867188 11.777344 7.960938 C 11.789062 7.992188 11.792969 8.191406 11.796875 8.679688 C 11.804688 9.351562 11.804688 9.359375 11.78125 9.425781 C 11.769531 9.460938 11.738281 9.507812 11.71875 9.535156 C 11.675781 9.582031 11.582031 9.632812 11.539062 9.632812 C 11.527344 9.632812 11.285156 9.695312 11.003906 9.765625 C 10.511719 9.898438 10.492188 9.902344 10.441406 9.890625 C 10.339844 9.863281 10.269531 9.796875 10.222656 9.699219 L 10.199219 9.640625 L 10.199219 7.992188 L 10.222656 7.9375 C 10.257812 7.867188 10.304688 7.820312 10.367188 7.785156 C 10.414062 7.757812 10.429688 7.757812 10.691406 7.75 C 11.230469 7.738281 11.542969 7.738281 11.582031 7.753906 Z M 11.582031 7.753906 "/>
</g>
</svg>
