<?xml version="1.0" encoding="UTF-8"?>
<svg xmlns="http://www.w3.org/2000/svg" xmlns:xlink="http://www.w3.org/1999/xlink" width="15px" height="15px" viewBox="0 0 15 15" version="1.1">
<g id="surface1">
<path style=" stroke:none;fill-rule:nonzero;fill:rgb(57.254902%,58.039216%,59.215686%);fill-opacity:1;" d="M 11.554688 2.054688 C 11.007812 1.511719 10.371094 1.085938 9.65625 0.796875 C 7.511719 -0.0703125 5.070312 0.425781 3.4375 2.058594 C 2.351562 3.144531 1.753906 4.527344 1.753906 5.957031 C 1.753906 7.382812 2.351562 8.769531 3.4375 9.851562 L 4.03125 10.445312 C 5.230469 11.628906 6.261719 12.648438 7.148438 14.070312 L 7.492188 14.625 L 7.839844 14.070312 C 8.726562 12.648438 9.757812 11.628906 10.953125 10.445312 L 11.550781 9.851562 C 13.8125 7.59375 13.8125 4.316406 11.554688 2.054688 Z M 9.277344 7.996094 C 8.292969 8.980469 6.695312 8.980469 5.710938 7.996094 C 4.726562 7.011719 4.726562 5.417969 5.710938 4.433594 C 6.695312 3.449219 8.292969 3.449219 9.277344 4.433594 C 10.257812 5.417969 10.257812 7.011719 9.277344 7.996094 Z M 9.277344 7.996094 "/>
</g>
</svg>
